<?xml version="1.0" encoding="UTF-8"?>
<svg id="Capa_1" data-name="Capa 1" xmlns="http://www.w3.org/2000/svg" viewBox="0 0 1080 1080">
  <defs>
    <style>
      .cls-1 {
        fill: #fff4e3;
      }

      .cls-2 {
        fill: #8c1812;
      }
    </style>
  </defs>
  <rect class="cls-2" width="1080" height="1080"/>
  <path class="cls-1" d="M776.68,558.38l-172.65-188.77,20.41,107.59h-48.15v.02s-93.65,0-93.65,0l-.04.07h-26.85l20.4-107.6-172.82,188.98,131.17,18.09,46.49,133.63h120.71l50.15-133.84,124.83-18.18ZM655,471.43l59.11,64.62-71.27,10.38-17.76-38.13h36.91l-6.99-36.87ZM425.18,471.52l-6.99,36.88h45.3l-19.53,38.27-77.7-10.72,58.92-64.43ZM580.13,679.29h-77.04l-37.22-107,35.16-63.96h86.26l33.07,63.57-40.24,107.39Z"/>
</svg>